<svg width="211" height="209" viewBox="0 0 211 209" fill="none" xmlns="http://www.w3.org/2000/svg">
<path fill-rule="evenodd" clip-rule="evenodd" d="M105.5 8.83902C52.1271 8.83902 8.88982 51.6844 8.88982 104.5C8.88982 157.316 52.1271 200.161 105.5 200.161C158.873 200.161 202.11 157.316 202.11 104.5C202.11 51.6844 158.873 8.83902 105.5 8.83902ZM0 104.5C0 46.7698 47.2506 0 105.5 0C163.749 0 211 46.7698 211 104.5C211 162.23 163.749 209 105.5 209C47.2506 209 0 162.23 0 104.5Z" fill="#E1E1E1"/>
<path d="M96.4318 161V113.143H79V94.125H96.4318V79.1408C96.4318 62.8609 107.25 54 123.045 54C130.614 54 137.114 54.5225 139 54.7523V71.7637H128.045C119.455 71.7637 117.795 75.5254 117.795 81.0217V94.125H137.182L134.523 113.143H117.795V161" fill="#3D8FE0"/>
<mask id="mask0" mask-type="alpha" maskUnits="userSpaceOnUse" x="79" y="54" width="60" height="107">
<path d="M96.4318 161V113.143H79V94.125H96.4318V79.1408C96.4318 62.8609 107.25 54 123.045 54C130.614 54 137.114 54.5225 139 54.7523V71.7637H128.045C119.455 71.7637 117.795 75.5254 117.795 81.0217V94.125H137.182L134.523 113.143H117.795V161" fill="white"/>
</mask>
<g mask="url(#mask0)">
</g>
</svg>
