<svg width="174" height="174" viewBox="0 0 174 174" fill="none" xmlns="http://www.w3.org/2000/svg">
<path fill-rule="evenodd" clip-rule="evenodd" d="M80.449 18.6938C76.1962 14.441 69.3031 14.441 65.0504 18.6938L18.6935 65.0505C14.4408 69.3033 14.4408 76.1964 18.6935 80.4491L93.0508 154.806C97.3035 159.059 104.197 159.059 108.449 154.806L154.806 108.449C159.058 104.198 159.06 97.305 154.799 93.0434L80.449 18.6938ZM59.2083 12.8517C66.6875 5.37251 78.8118 5.37251 86.291 12.8517L160.641 87.2013C168.126 94.6867 168.129 106.811 160.648 114.292L114.291 160.648C106.812 168.127 94.6879 168.127 87.2087 160.648L12.8514 86.2912C5.37223 78.812 5.37223 66.6877 12.8514 59.2085L59.2083 12.8517Z" fill="url(#paint0_linear)"/>
<path d="M118.619 107.994C121.552 110.927 121.552 115.682 118.619 118.615C115.686 121.548 110.929 121.548 107.996 118.615C105.063 115.682 105.063 110.927 107.996 107.994C110.929 105.062 115.686 105.062 118.619 107.994Z" fill="#777777"/>
<path fill-rule="evenodd" clip-rule="evenodd" d="M110.917 110.915C109.597 112.235 109.597 114.375 110.917 115.694C112.237 117.014 114.378 117.014 115.698 115.694C117.018 114.375 117.018 112.235 115.698 110.915C114.378 109.595 112.237 109.595 110.917 110.915ZM105.075 121.536C100.528 116.99 100.528 109.62 105.075 105.074C109.622 100.528 116.994 100.528 121.54 105.074C126.087 109.62 126.087 116.99 121.54 121.536C116.994 126.081 109.622 126.081 105.075 121.536Z" fill="url(#paint1_linear)"/>
<path fill-rule="evenodd" clip-rule="evenodd" d="M120.173 0H124.304C151.476 0 173.5 22.0236 173.5 49.196V53.3269H165.238V49.196C165.238 26.5865 146.913 8.2619 124.304 8.2619H120.173V0Z" fill="url(#paint2_linear)"/>
<path fill-rule="evenodd" clip-rule="evenodd" d="M8.2619 120.173V124.304C8.2619 146.913 26.5865 165.238 49.196 165.238H53.3269V173.499H49.196C22.0236 173.499 0 151.476 0 124.304V120.173H8.2619Z" fill="url(#paint3_linear)"/>
<defs>
<linearGradient id="paint0_linear" x1="125.959" y1="234.497" x2="262.438" y2="66.6244" gradientUnits="userSpaceOnUse">
<stop stop-color="#3481C4"/>
<stop offset="0.606018" stop-color="#F7847E"/>
<stop offset="1" stop-color="#F4F0EF"/>
</linearGradient>
<linearGradient id="paint1_linear" x1="132.667" y1="124.541" x2="129.417" y2="93.033" gradientUnits="userSpaceOnUse">
<stop stop-color="#3481C4"/>
<stop offset="0.606018" stop-color="#F7847E"/>
<stop offset="1" stop-color="#F4F0EF"/>
</linearGradient>
<linearGradient id="paint2_linear" x1="159.986" y1="76.2114" x2="205.755" y2="19.914" gradientUnits="userSpaceOnUse">
<stop stop-color="#3481C4"/>
<stop offset="0.606018" stop-color="#F7847E"/>
<stop offset="1" stop-color="#F4F0EF"/>
</linearGradient>
<linearGradient id="paint3_linear" x1="39.8127" y1="196.384" x2="85.5815" y2="140.086" gradientUnits="userSpaceOnUse">
<stop stop-color="#3481C4"/>
<stop offset="0.606018" stop-color="#F7847E"/>
<stop offset="1" stop-color="#F4F0EF"/>
</linearGradient>
</defs>
</svg>
