<svg width="209" height="209" viewBox="0 0 209 209" fill="none" xmlns="http://www.w3.org/2000/svg">
<path fill-rule="evenodd" clip-rule="evenodd" d="M104.5 8.83902C51.633 8.83902 8.80555 51.6844 8.80555 104.5C8.80555 157.316 51.633 200.161 104.5 200.161C157.367 200.161 200.194 157.316 200.194 104.5C200.194 51.6844 157.367 8.83902 104.5 8.83902ZM0 104.5C0 46.7698 46.8027 0 104.5 0C162.197 0 209 46.7698 209 104.5C209 162.23 162.197 209 104.5 209C46.8027 209 0 162.23 0 104.5Z" fill="#E1E1E1"/>
<path d="M149.693 84.1804C149.763 85.1538 149.763 86.1274 149.763 87.1008C149.763 116.79 127.079 151 85.6194 151C72.8465 151 60.981 147.315 51 140.918C52.8148 141.127 54.5595 141.196 56.4442 141.196C66.9834 141.196 76.6853 137.65 84.4328 131.601C74.5216 131.392 66.2157 124.926 63.354 116.026C64.7501 116.234 66.1459 116.373 67.6118 116.373C69.6358 116.373 71.6601 116.095 73.5445 115.609C63.2146 113.523 55.4668 104.484 55.4668 93.5671V93.2891C58.468 94.9579 61.9581 96.0008 65.6571 96.1397C59.5848 92.1068 55.6065 85.2233 55.6065 77.4358C55.6065 73.264 56.723 69.4398 58.6775 66.1022C69.7753 79.7304 86.4569 88.6302 105.162 89.6038C104.813 87.935 104.604 86.1969 104.604 84.4586C104.604 72.0819 114.655 62 127.148 62C133.64 62 139.502 64.7117 143.621 69.0922C148.716 68.1188 153.601 66.2414 157.929 63.6688C156.254 68.8837 152.694 73.2642 148.018 76.0453C152.555 75.5588 156.952 74.3069 161 72.5688C157.929 77.0186 154.09 80.9818 149.693 84.1804Z" fill="#3D8FE0"/>
<mask id="mask0" mask-type="alpha" maskUnits="userSpaceOnUse" x="51" y="62" width="110" height="89">
<path d="M149.693 84.1804C149.763 85.1538 149.763 86.1274 149.763 87.1008C149.763 116.79 127.079 151 85.6194 151C72.8465 151 60.981 147.315 51 140.918C52.8148 141.127 54.5595 141.196 56.4442 141.196C66.9834 141.196 76.6853 137.65 84.4328 131.601C74.5216 131.392 66.2157 124.926 63.354 116.026C64.7501 116.234 66.1459 116.373 67.6118 116.373C69.6358 116.373 71.6601 116.095 73.5445 115.609C63.2146 113.523 55.4668 104.484 55.4668 93.5671V93.2891C58.468 94.9579 61.9581 96.0008 65.6571 96.1397C59.5848 92.1068 55.6065 85.2233 55.6065 77.4358C55.6065 73.264 56.723 69.4398 58.6775 66.1022C69.7753 79.7304 86.4569 88.6302 105.162 89.6038C104.813 87.935 104.604 86.1969 104.604 84.4586C104.604 72.0819 114.655 62 127.148 62C133.64 62 139.502 64.7117 143.621 69.0922C148.716 68.1188 153.601 66.2414 157.929 63.6688C156.254 68.8837 152.694 73.2642 148.018 76.0453C152.555 75.5588 156.952 74.3069 161 72.5688C157.929 77.0186 154.09 80.9818 149.693 84.1804Z" fill="white"/>
</mask>
<g mask="url(#mask0)">
</g>
</svg>
