<svg width="209" height="209" viewBox="0 0 209 209" fill="none" xmlns="http://www.w3.org/2000/svg">
<path fill-rule="evenodd" clip-rule="evenodd" d="M104.5 8.83902C51.633 8.83902 8.80555 51.6844 8.80555 104.5C8.80555 157.316 51.633 200.161 104.5 200.161C157.367 200.161 200.194 157.316 200.194 104.5C200.194 51.6844 157.367 8.83902 104.5 8.83902ZM0 104.5C0 46.7698 46.8027 0 104.5 0C162.197 0 209 46.7698 209 104.5C209 162.23 162.197 209 104.5 209C46.8027 209 0 162.23 0 104.5Z" fill="#E1E1E1"/>
<path fill-rule="evenodd" clip-rule="evenodd" d="M141.741 72.1835C146.173 73.3852 149.663 76.9261 150.848 81.422C153 89.5712 153 106.574 153 106.574C153 106.574 153 123.576 150.848 131.725C149.663 136.221 146.173 139.615 141.741 140.816C133.709 143 101.5 143 101.5 143C101.5 143 69.2912 143 61.2586 140.816C56.8271 139.615 53.3369 136.221 52.1523 131.725C50 123.576 50 106.574 50 106.574C50 106.574 50 89.5712 52.1523 81.422C53.3369 76.9261 56.8271 73.3854 61.2586 72.1835C69.2912 70 101.5 70 101.5 70C101.5 70 133.709 70 141.741 72.1835ZM90.9664 91.1326V122.007L117.887 106.57L90.9664 91.1326Z" fill="#3D8FE0"/>
<mask id="mask0" mask-type="alpha" maskUnits="userSpaceOnUse" x="50" y="70" width="103" height="73">
<path fill-rule="evenodd" clip-rule="evenodd" d="M141.741 72.1835C146.173 73.3852 149.663 76.9261 150.848 81.422C153 89.5712 153 106.574 153 106.574C153 106.574 153 123.576 150.848 131.725C149.663 136.221 146.173 139.615 141.741 140.816C133.709 143 101.5 143 101.5 143C101.5 143 69.2912 143 61.2586 140.816C56.8271 139.615 53.3369 136.221 52.1523 131.725C50 123.576 50 106.574 50 106.574C50 106.574 50 89.5712 52.1523 81.422C53.3369 76.9261 56.8271 73.3854 61.2586 72.1835C69.2912 70 101.5 70 101.5 70C101.5 70 133.709 70 141.741 72.1835ZM90.9664 91.1326V122.007L117.887 106.57L90.9664 91.1326Z" fill="white"/>
</mask>
<g mask="url(#mask0)">
</g>
</svg>
